<?xml version="1.0" encoding="utf-8"?>
<!-- Generator: Adobe Illustrator 27.5.0, SVG Export Plug-In . SVG Version: 6.00 Build 0)  -->
<svg version="1.1" id="Capa_1" xmlns="http://www.w3.org/2000/svg" xmlns:xlink="http://www.w3.org/1999/xlink" x="0px" y="0px"
	 viewBox="0 0 2122 2122" style="enable-background:new 0 0 2122 2122;" xml:space="preserve">
<g>
	<path style="fill:#291F4B;" d="M1469.524,1562.762H887.56c-0.17,0-0.336,0.073-0.457,0.2
		c-15.079,16.161-28.736,25.359-41.735,28.112c-0.005,0-0.005,0-0.005,0c-2.236,0.473-4.579,0.853-7.157,1.159
		c-0.502,0.058-0.984,0.097-1.472,0.137l-0.658,0.053c-1.739,0.156-3.279,0.238-4.711,0.268c-0.2,0.005-0.405,0.019-0.609,0.034
		c-0.361,0.02-0.711,0.029-1.028,0c-0.166-0.015-0.332-0.024-0.502-0.029c-1.881-0.029-3.747-0.141-5.549-0.341
		c-0.156-0.019-0.317-0.029-0.477-0.044c-0.19-0.014-0.38-0.024-0.57-0.053c-2.003-0.263-3.971-0.648-6.027-1.179
		c-0.346-0.088-0.682-0.19-1.018-0.297l-0.487-0.146c-1.481-0.429-2.899-0.916-4.229-1.452l-0.273-0.107
		c-0.419-0.166-0.838-0.331-1.242-0.511c-1.944-0.858-3.572-1.691-4.975-2.538c-5.7-3.479-10.446-8.161-14.114-13.92
		c-1.705-2.631-3.24-5.642-4.561-8.95c-0.092-0.239-0.326-0.395-0.58-0.395H316.37c-16.794,0-30.456,13.661-30.456,30.456v357.144
		c0,16.794,13.661,30.455,30.456,30.455h1153.153c16.794,0,30.455-13.661,30.455-30.455v-357.144
		C1499.979,1576.423,1486.318,1562.762,1469.524,1562.762z M1415.107,1619.161v305.256H1109.85v-305.256H1415.107z M664.56,1619.161
		v305.256H359.298v-305.256H664.56z M1045.578,1619.161v305.256H740.321v-305.256H1045.578z"/>
	<path style="fill:#8E90C6;" d="M1555.131,628.39l-167.23-113.861c-0.282-0.193-0.672-0.122-0.867,0.166l-76.955,113.006
		c-49.462,72.638-98.914,145.274-148.37,217.91l-138.226,203.013c-3.328,4.889-6.685,9.776-10.041,14.665
		c-0.097,0.146-0.132,0.329-0.088,0.502c0.039,0.173,0.156,0.319,0.312,0.402c6.397,3.379,12.911,7.199,19.211,10.896
		c16.307,9.573,33.165,19.469,51.035,23.62c6.597,1.53,13.306,2.3,20.151,2.3c34.343,0,71.98-19.357,114.358-58.677
		c2.163-2.002,4.327-4.022,6.5-6.049c26.977-25.167,54.874-51.191,90.533-58.026c4.326-0.831,8.858-1.194,13.476-1.079h0.015
		c0.209,0,0.399-0.102,0.516-0.275c54.036-80.217,107.707-161.922,159.517-242.843c21.427-33.483,42.953-67.432,63.975-100.906
		c0.546-0.88,1.096-1.802,1.642-2.724l0.722-1.201C1555.487,628.944,1555.404,628.578,1555.131,628.39z M1406.152,606.22
		l-276.808,406.557c-2.86,4.205-7.211,7.047-12.244,8.002c-5.042,0.965-10.124-0.092-14.328-2.959
		c-4.205-2.863-7.045-7.211-8-12.244c-0.955-5.036,0.092-10.122,2.957-14.326l276.808-406.558c3.698-5.43,9.715-8.353,15.839-8.353
		c3.703,0,7.445,1.072,10.733,3.311c4.205,2.862,7.045,7.211,8,12.244C1410.069,596.929,1409.017,602.015,1406.152,606.22z"/>
	<path style="fill:#0A918A;" d="M1415.731,1617.914h-306.504c-0.346,0-0.624,0.277-0.624,0.624v306.504
		c0,0.346,0.278,0.624,0.624,0.624h306.504c0.346,0,0.624-0.277,0.624-0.624v-306.504
		C1416.354,1618.192,1416.077,1617.914,1415.731,1617.914z"/>
	<path style="fill:#CB0B5C;" d="M665.183,1617.914H358.675c-0.346,0-0.624,0.277-0.624,0.624v306.504
		c0,0.346,0.277,0.624,0.624,0.624h306.509c0.346,0,0.624-0.277,0.624-0.624v-306.504
		C665.807,1618.192,665.529,1617.914,665.183,1617.914z"/>
	<g>
		<path style="fill:#F49619;" d="M1046.201,1617.914H739.698c-0.346,0-0.624,0.277-0.624,0.624v306.504
			c0,0.346,0.277,0.624,0.624,0.624h306.504c0.346,0,0.624-0.277,0.624-0.624v-306.504
			C1046.825,1618.192,1046.547,1617.914,1046.201,1617.914z"/>
		<path style="fill:#F49619;" d="M1328.958,975.93c-4.682-0.137-9.325,0.254-13.739,1.104c-36.015,6.901-64.044,33.05-91.152,58.336
			c-2.168,2.027-4.337,4.047-6.495,6.046c-50.499,46.862-94.134,65.206-133.379,56.076c-17.686-4.102-34.46-13.954-50.684-23.474
			c-6.315-3.707-12.838-7.537-19.26-10.926c-0.282-0.154-0.634-0.063-0.804,0.197c-20.19,29.267-41.281,58.694-61.676,87.147
			c-31.722,44.253-64.522,90.017-94.665,136.224c-27.474,42.144-38.967,87.259-36.18,141.983
			c1.325,25.676-11.011,44.389-25.291,66.056c-1.15,1.744-2.309,3.503-3.469,5.281c-12.434,19.065-15.425,44.044-7.62,63.635
			c1.35,3.386,2.923,6.475,4.677,9.174c0.102,0.156,0.268,0.258,0.458,0.277c0.02,0.005,0.044,0.005,0.063,0.005
			c0.166,0,0.326-0.068,0.443-0.185l46.09-46.709c23.015-23.362,46.816-47.517,76.565-62.85c10.841-5.608,22.49-9.998,33.759-14.246
			c11.845-4.463,24.093-9.077,35.46-15.123c40.994-21.822,70.421-62.343,94.07-94.904c50.1-68.974,100.721-140.224,150.451-211.765
			c35.664-51.372,70.275-101.968,102.879-150.387c0.127-0.19,0.141-0.431,0.039-0.634
			C1329.392,976.063,1329.188,975.934,1328.958,975.93z"/>
	</g>
	<path style="fill:#797AB9;" d="M1600.49,659.275l-45.359-30.885c-0.142-0.095-0.317-0.124-0.483-0.092
		c-0.171,0.036-0.317,0.141-0.405,0.287l-0.721,1.206c-0.541,0.913-1.087,1.829-1.632,2.699h0.005
		c-21.018,33.469-42.543,67.415-63.97,100.896c-51.805,80.914-105.467,162.609-159.498,242.818c-0.127,0.19-0.141,0.434-0.039,0.636
		c0.107,0.202,0.317,0.331,0.546,0.336c16.36,0.29,33.067,6.263,45.827,16.385c0.112,0.087,0.249,0.134,0.39,0.134
		c0.029,0,0.063-0.003,0.092-0.008c0.171-0.024,0.322-0.119,0.419-0.263c16.901-24.497,32.049-46.655,46.305-67.735
		c35.303-52.156,71.006-105.322,105.534-156.738l26.319-39.181c15.595-23.218,31.215-46.426,46.836-69.632
		C1600.851,659.855,1600.773,659.469,1600.49,659.275z"/>
	<path style="fill:#D07D27;" d="M1375.541,992.583c-12.974-10.287-29.954-16.358-46.587-16.653c0,0-0.005,0-0.01,0
		c-0.21,0-0.4,0.102-0.517,0.275c-32.599,48.415-67.21,99.006-102.869,150.373c-49.725,71.532-100.341,142.777-150.441,211.746
		c-23.566,32.453-52.901,72.842-93.642,94.533c-11.299,6.007-23.508,10.612-35.318,15.06c-11.299,4.258-22.987,8.662-33.891,14.3
		c-29.925,15.425-53.793,39.654-76.877,63.084l-46.09,46.709c-0.205,0.21-0.239,0.526-0.083,0.775
		c3.766,5.914,8.648,10.728,14.514,14.304c1.452,0.882,3.123,1.739,5.116,2.616c0.424,0.19,0.858,0.36,1.291,0.531l0.268,0.107
		c1.364,0.546,2.826,1.048,4.341,1.491l0.473,0.142c0.356,0.112,0.711,0.219,1.077,0.312c2.1,0.545,4.121,0.94,6.163,1.208
		c0.21,0.03,0.429,0.044,0.648,0.063c0.146,0.01,0.292,0.019,0.433,0.034c1.842,0.205,3.747,0.321,5.667,0.351
		c0.141,0,0.277,0.015,0.414,0.025c0.18,0.019,0.365,0.034,0.56,0.034c0.214,0,0.443-0.015,0.667-0.034
		c0.18-0.015,0.36-0.03,0.536-0.03c1.466-0.029,3.035-0.117,4.799-0.273l0.653-0.053c0.501-0.039,0.999-0.078,1.515-0.141
		c2.616-0.312,4.994-0.697,7.274-1.179c13.262-2.806,27.128-12.122,42.392-28.482c7.8-8.36,14.709-17.125,20.804-24.857l2.333-2.962
		c13.73-17.34,37.574-22.855,60.634-28.19c16-3.698,31.113-7.196,43.25-14.334c48.073-28.321,72.667-68.998,98.709-112.068
		c8.166-13.5,16.604-27.459,26.012-41.505c6.495-9.739,13.321-20.097,20.858-31.668c51.215-78.582,105.608-156.935,158.212-232.711
		c18.66-26.879,37.958-54.677,56.833-82.088C1375.852,993.155,1375.794,992.787,1375.541,992.583z"/>
	<path style="fill:#36255F;" d="M1804.242,153.653l-29.715-20.232c-71.211-48.48-168.58-29.988-217.062,41.213l-108.672,159.613
		c-5.009,7.357-9.466,15.347-13.252,23.752c-0.122,0.275-0.029,0.602,0.219,0.772l282.981,192.667
		c0.107,0.071,0.229,0.107,0.351,0.107c0.166,0,0.327-0.063,0.448-0.188c6.421-6.59,12.224-13.664,17.242-21.033l108.672-159.61
		C1893.937,299.512,1875.448,202.138,1804.242,153.653z M1690.649,198.252c-7.128,7.116-16.37,11.839-25.306,16.409
		c-1.89,0.967-3.781,1.932-5.647,2.919c-19.342,10.209-37.218,23.24-53.125,38.726c-6.529,6.35-12.277,14.175-17.837,21.742
		c-7.396,10.068-15.045,20.48-24.604,27.52c-8.195,6.039-15.99,7.32-21.925,3.603c-7.157-4.473-10.494-15.513-8.307-27.469
		c9.101-49.642,58.221-92.363,73.057-104.273c14.64-11.747,43.444-28.007,65.666-28.007c2.986,0,5.856,0.292,8.55,0.931
		c8.297,1.958,14.387,7.055,18.11,15.15C1704.5,176.866,1698.464,190.445,1690.649,198.252z"/>
	<path style="fill:#E6C7E1;" d="M1700.412,164.981c-3.888-8.46-10.266-13.791-18.952-15.844
		c-23.211-5.471-58.495,13.849-75.284,27.318c-14.923,11.981-64.326,54.955-73.505,105.023c-2.28,12.456,1.286,24.01,8.872,28.75
		c2.441,1.525,5.15,2.28,8.054,2.28c4.711,0,9.924-1.998,15.274-5.936c9.71-7.152,17.418-17.642,24.872-27.786
		c5.525-7.525,11.245-15.308,17.695-21.588c15.825-15.401,33.603-28.361,52.843-38.516c1.861-0.982,3.747-1.947,5.632-2.909
		c9.023-4.614,18.354-9.384,25.613-16.638C1699.915,190.759,1705.913,176.951,1700.412,164.981z"/>
	<path style="fill:#62398E;" d="M1759.949,584.184c-0.872-4.592-3.464-8.558-7.303-11.172l-339.717-231.298
		c-3.829-2.614-8.482-3.569-13.067-2.699c-4.589,0.872-8.555,3.464-11.167,7.301l-69.393,101.917
		c-2.611,3.836-3.571,8.477-2.699,13.067c0.872,4.59,3.464,8.558,7.304,11.169l339.717,231.3c2.909,1.981,6.285,3.011,9.749,3.011
		c1.101,0,2.212-0.102,3.318-0.314c4.589-0.87,8.555-3.464,11.167-7.3l69.393-101.915
		C1759.862,593.414,1760.822,588.773,1759.949,584.184z"/>
	<path style="fill:#C6C9E6;" d="M1410.337,591.662c-1.018-5.362-4.044-9.995-8.526-13.045c-9.286-6.315-21.978-3.907-28.307,5.374
		l-276.808,406.557c-3.05,4.478-4.17,9.898-3.152,15.26c1.018,5.362,4.049,9.993,8.526,13.045c3.401,2.314,7.342,3.518,11.391,3.518
		c1.286,0,2.582-0.12,3.873-0.366c5.359-1.018,9.993-4.046,13.043-8.526l276.808-406.557
		C1410.235,602.442,1411.355,597.024,1410.337,591.662z"/>
</g>
</svg>
